<?xml version="1.0" encoding="UTF-8"?>
<svg id="Capa_1" data-name="Capa 1" xmlns="http://www.w3.org/2000/svg" viewBox="0 0 576.69 142.19">
  <defs>
    <style>
      .cls-1 {
      fill: #009ee0;
      stroke: #009ee0;
      stroke-width: .38px;
      }

      .cls-2 {
      fill: #fff;
      stroke-width: 0px;
      }
    </style>
  </defs>
  <rect class="cls-1" x=".19" y=".19" width="576.31" height="141.81"/>
  <g>
    <path class="cls-2" d="M83.76,52.08v15.75c5.86-10.49,11.87-15.75,18.05-15.75,2.8,0,5.12.88,6.94,2.6,1.84,1.69,2.75,3.65,2.75,5.9,0,1.98-.65,3.66-1.98,5.04-1.32,1.38-2.9,2.07-4.75,2.07s-3.78-.86-6.02-2.6c-2.2-1.79-3.83-2.68-4.91-2.68-.91,0-1.9.51-2.97,1.52-2.3,2.1-4.66,5.54-7.11,10.33v33.55c0,3.88.48,6.81,1.46,8.8.65,1.37,1.82,2.52,3.51,3.44,1.68.92,4.1,1.39,7.26,1.39v2.75h-35.85v-2.75c3.57,0,6.21-.57,7.95-1.7,1.27-.81,2.16-2.11,2.67-3.89.26-.87.38-3.34.38-7.42v-27.13c0-8.15-.17-13-.54-14.53-.3-1.58-.91-2.72-1.83-3.44-.86-.71-1.97-1.07-3.29-1.07-1.58,0-3.36.38-5.34,1.15l-.78-2.75,21.19-8.57h3.21"/>
    <path class="cls-2" d="M161.59,52.08v23.86h-2.52c-1.93-7.49-4.44-12.59-7.5-15.29-3-2.7-6.85-4.05-11.54-4.05-3.58,0-6.44.95-8.64,2.83s-3.28,3.97-3.28,6.27c0,2.85.81,5.3,2.43,7.34,1.59,2.08,4.79,4.3,9.63,6.64l11.16,5.43c10.35,5.05,15.52,11.7,15.53,19.96,0,6.36-2.42,11.51-7.27,15.44-4.79,3.86-10.17,5.8-16.12,5.8-4.29,0-9.17-.76-14.68-2.29-1.68-.5-3.06-.77-4.14-.77-1.16,0-2.08.67-2.74,1.99h-2.52v-25h2.52c1.43,7.14,4.15,12.51,8.18,16.13,4.03,3.62,8.55,5.43,13.54,5.43,3.52,0,6.36-1.02,8.56-3.07,2.24-2.08,3.36-4.58,3.36-7.49,0-3.52-1.25-6.47-3.75-8.87-2.45-2.39-7.36-5.43-14.75-9.1-7.4-3.67-12.23-6.97-14.53-9.94-2.29-2.9-3.44-6.57-3.44-11,0-5.77,1.96-10.58,5.89-14.45,3.97-3.87,9.1-5.81,15.37-5.82,2.75,0,6.09.6,10.02,1.77,2.6.77,4.33,1.15,5.2,1.15.81,0,1.44-.18,1.91-.54.46-.36.99-1.15,1.6-2.38h2.52"/>
    <path class="cls-2" d="M202.35,108.36c0,4.37.31,7.31.92,8.79.66,1.43,1.59,2.49,2.82,3.2,1.28.72,3.57,1.08,6.89,1.08v2.75h-34.01v-2.75c3.4,0,5.69-.33,6.87-1.01,1.17-.65,2.08-1.74,2.75-3.28.72-1.54,1.07-4.47,1.08-8.79v-26.99c0-7.6-.24-12.52-.69-14.77-.36-1.63-.91-2.75-1.69-3.36-.75-.67-1.8-1-3.12-1-1.43,0-3.17.38-5.19,1.15l-1.08-2.75,21.09-8.57h3.37v56.28ZM196.01,15.47c2.13,0,3.94.76,5.42,2.29,1.53,1.48,2.3,3.29,2.3,5.43s-.76,3.98-2.3,5.51c-1.47,1.53-3.29,2.3-5.42,2.3s-3.98-.76-5.51-2.3c-1.53-1.53-2.3-3.36-2.3-5.51s.75-3.95,2.22-5.43c1.53-1.53,3.39-2.29,5.59-2.29Z"/>
    <path class="cls-2" d="M313.91,18.59l2.37,35.25h-2.37c-3.17-10.55-7.67-18.15-13.53-22.78-5.87-4.65-12.9-6.97-21.1-6.97-6.88,0-13.1,1.77-18.66,5.28-5.54,3.47-9.93,9.01-13.14,16.66-3.16,7.65-4.74,17.16-4.74,28.51,0,9.38,1.51,17.51,4.52,24.38,3,6.89,7.51,12.16,13.53,15.83,6.06,3.66,12.97,5.51,20.71,5.51,6.73,0,12.66-1.43,17.82-4.29,5.14-2.9,10.79-8.64,16.96-17.19l2.36,1.53c-5.19,9.22-11.26,15.97-18.19,20.26-6.93,4.28-15.17,6.41-24.69,6.41-17.17,0-30.47-6.36-39.91-19.12-7.03-9.47-10.55-20.63-10.55-33.48,0-10.34,2.32-19.85,6.96-28.51,4.64-8.67,11-15.37,19.12-20.1,8.15-4.79,17.04-7.19,26.67-7.19,7.5,0,14.88,1.83,22.19,5.5,2.13,1.13,3.66,1.69,4.58,1.69,1.38,0,2.57-.49,3.59-1.46,1.33-1.37,2.28-3.28,2.83-5.73h2.68"/>
    <path class="cls-2" d="M363.48,109.57v-26.68c-7.69,3.06-12.66,5.23-14.9,6.49-4.02,2.25-6.91,4.59-8.64,7.04-1.73,2.44-2.59,5.11-2.59,8.02,0,3.67,1.09,6.73,3.29,9.17,2.19,2.4,4.7,3.59,7.56,3.59,3.88,0,8.98-2.55,15.29-7.64M363.48,114.53c-7.19,5.56-11.69,8.77-13.53,9.64-2.75,1.27-5.69,1.91-8.79,1.91-4.85,0-8.85-1.66-12.01-4.97-3.11-3.3-4.65-7.68-4.65-13.08,0-3.41.76-6.36,2.29-8.86,2.09-3.46,5.7-6.73,10.86-9.79,5.19-3.05,13.8-6.78,25.83-11.16v-2.76c0-6.97-1.12-11.76-3.36-14.37-2.19-2.6-5.41-3.9-9.64-3.9-3.21,0-5.76.86-7.65,2.6-1.94,1.74-2.91,3.73-2.91,5.96l.15,4.43c0,2.35-.61,4.16-1.83,5.44-1.18,1.27-2.74,1.9-4.65,1.9s-3.45-.66-4.66-1.99c-1.18-1.32-1.77-3.13-1.77-5.42,0-4.37,2.24-8.41,6.73-12.08,4.48-3.67,10.77-5.51,18.88-5.51,6.22,0,11.31,1.05,15.29,3.14,3,1.58,5.22,4.05,6.65,7.41.91,2.2,1.37,6.68,1.37,13.45v23.79c0,6.68.13,10.77.38,12.3.25,1.48.66,2.47,1.23,2.99.61.5,1.29.76,2.06.76s1.52-.17,2.14-.53c1.07-.66,3.14-2.53,6.19-5.59v4.28c-5.72,7.65-11.16,11.47-16.36,11.47-2.49,0-4.49-.86-5.97-2.6-1.46-1.73-2.24-4.69-2.29-8.87Z"/>
    <path class="cls-2" d="M412.28,52.53v56.27c0,4.39.3,7.31.92,8.79.66,1.43,1.6,2.5,2.84,3.22,1.26.71,3.56,1.07,6.87,1.07v2.75h-34.02v-2.75c3.42,0,5.71-.33,6.88-1,1.19-.65,2.11-1.75,2.77-3.29.71-1.53,1.07-4.46,1.07-8.79v-26.99c0-7.59-.23-12.51-.69-14.75-.36-1.63-.92-2.75-1.68-3.36-.78-.66-1.82-1.01-3.14-1.01-1.43,0-3.17.38-5.21,1.15l-1.06-2.75,21.1-8.56h3.36M405.95,15.92c2.13,0,3.94.76,5.42,2.29,1.53,1.48,2.29,3.29,2.29,5.43s-.76,3.98-2.29,5.51c-1.48,1.53-3.3,2.3-5.42,2.3s-3.98-.76-5.51-2.3c-1.52-1.53-2.29-3.36-2.29-5.51s.74-3.94,2.22-5.43c1.53-1.52,3.39-2.29,5.59-2.29Z"/>
    <path class="cls-2" d="M423.64,54.6h32.95v2.82c-2.09,0-3.56.38-4.45,1.08-.81.72-1.23,1.66-1.23,2.83s.9,3.11,2.69,5.64c.55.83,1.4,2.1,2.52,3.83l4.97,7.95,5.73-7.95c3.67-5.05,5.51-8.24,5.51-9.56,0-1.07-.43-1.96-1.3-2.67-.86-.76-2.26-1.16-4.2-1.16v-2.82h23.7v2.82c-2.49.17-4.66.86-6.49,2.08-2.51,1.73-5.91,5.5-10.25,11.31l-9.56,12.77,17.44,25.06c4.27,6.17,7.34,9.89,9.17,11.17,1.83,1.22,4.2,1.9,7.11,2.06v2.75h-33.03v-2.75c2.3,0,4.07-.51,5.35-1.53.96-.71,1.44-1.66,1.44-2.83s-1.64-4.13-4.89-8.88l-10.24-14.98-11.25,14.98c-3.46,4.64-5.18,7.39-5.18,8.26,0,1.22.54,2.35,1.68,3.37,1.15.96,2.9,1.51,5.2,1.6v2.75h-22.87v-2.75c1.84-.26,3.45-.9,4.82-1.91,1.95-1.48,5.2-5.25,9.78-11.32l14.68-19.49-13.3-19.27c-3.77-5.51-6.71-8.95-8.8-10.32-2.04-1.42-4.6-2.13-7.71-2.15v-2.82"/>
    <path class="cls-2" d="M539.26,109.57v-26.68c-7.7,3.06-12.66,5.23-14.9,6.49-4.03,2.25-6.91,4.59-8.64,7.04-1.74,2.44-2.61,5.11-2.61,8.02,0,3.67,1.1,6.73,3.29,9.17,2.19,2.4,4.72,3.59,7.57,3.59,3.87,0,8.97-2.55,15.29-7.64M539.26,114.53c-7.18,5.56-11.69,8.77-13.52,9.64-2.75,1.27-5.69,1.91-8.79,1.91-4.84,0-8.85-1.66-12.01-4.97-3.09-3.3-4.65-7.68-4.65-13.08,0-3.41.76-6.36,2.28-8.86,2.09-3.46,5.72-6.73,10.87-9.79,5.2-3.05,13.81-6.78,25.83-11.16v-2.76c0-6.97-1.12-11.76-3.36-14.37-2.19-2.6-5.4-3.9-9.64-3.9-3.21,0-5.76.86-7.63,2.6-1.95,1.74-2.91,3.73-2.91,5.96l.15,4.43c0,2.35-.6,4.16-1.83,5.44-1.18,1.27-2.73,1.9-4.67,1.9s-3.43-.66-4.66-1.99c-1.16-1.32-1.76-3.13-1.76-5.42,0-4.37,2.25-8.41,6.73-12.08,4.49-3.67,10.78-5.51,18.89-5.51,6.22,0,11.31,1.05,15.29,3.14,3.01,1.58,5.22,4.05,6.65,7.41.91,2.2,1.37,6.68,1.37,13.45v23.79c0,6.68.12,10.77.38,12.3.25,1.48.66,2.47,1.21,2.99.62.5,1.31.76,2.07.76.83,0,1.52-.17,2.14-.53,1.07-.66,3.12-2.53,6.19-5.59v4.28c-5.71,7.65-11.16,11.47-16.36,11.47-2.5,0-4.48-.86-5.95-2.6-1.48-1.73-2.25-4.69-2.3-8.87Z"/>
    <path class="cls-2" d="M45.62,24.43c-4.57.89-5.07,4.74-5.07,9.93,0,14.36-.49,31.83-.49,47.53v28.72c0,4.88,1.36,10.51,6.06,10.66v3.25c-4.2,0-8.53-.6-12.73-.6s-8.53.6-12.73.6v-3.25c3.96-.15,6.18-4.3,6.18-10.66v-21.32c0-17.77-1.11-43.82-1.11-53.15,0-6.06-.49-10.94-5.56-11.7v-3.25c4.2,0,8.4.59,12.72.59s8.53-.59,12.73-.59v3.25Z"/>
  </g>
</svg>
